<?xml version="1.0" encoding="utf-8"?>
<!-- Generator: Adobe Illustrator 26.4.1, SVG Export Plug-In . SVG Version: 6.00 Build 0)  -->
<svg version="1.1" id="Layer_1" xmlns="http://www.w3.org/2000/svg" xmlns:xlink="http://www.w3.org/1999/xlink" x="0px" y="0px"
	 viewBox="0 0 20 20" style="enable-background:new 0 0 20 20;" xml:space="preserve">
<style type="text/css">
	.st0{fill:#1b3b78;}
</style>
<g>
	<path class="st0" d="M19.29,6.4v0.74l-4.93-1.12V5.19L19.29,6.4z M18.25,19.29v-2l-2.27-0.32v2.32h-1.63v-3.28l4.93,1.12v2.16
		H18.25z M16.69,19.29v-1.5l0.84,0.12v1.38H16.69z M13.64,19.29h-2.05V6.34l2.05-1.02V19.29z M8.72,19.29v-2.45l-2.61-0.37v2.82
		H4.29v-4.66l6.59,1.14v3.52H8.72z M6.82,19.29v-2L8,17.46v1.83H6.82z M1.88,19.29l1.69-0.67v0.67H1.88z M3.57,0.96v1.33L0.71,3.42
		V2.38L3.57,0.96z M10.87,2.44v1.07L4.29,2.23v-1.4L10.87,2.44z M4.29,6.02V4.91l6.59,1.32v1.21L4.29,6.02z M4.29,8.07V6.75
		l6.59,1.42v1.22L4.29,8.07z M4.29,10.02V8.8l6.59,1.32v1.22L4.29,10.02z M4.29,11.96v-1.22l6.59,1.32v1.22L4.29,11.96z M4.29,12.69
		l6.59,1.32v1.03L4.29,13.9V12.69z M0.71,15.86l2.86-1.13v1.18l-2.86,1.13V15.86z M0.71,6.13L3.57,5v1.07L0.71,7.29V6.13z
		 M0.71,13.91l2.86-1.13v1.18l-2.86,1.13V13.91z M0.71,11.97l2.86-1.13v1.18l-2.86,1.13V11.97z M0.71,9.25V8.07l2.86-1.22v1.27
		L0.71,9.25z M0.71,10.02l2.86-1.13v1.18L0.71,11.2V10.02z M10.87,5.5L4.29,4.18V2.96l6.59,1.28V5.5z M0.71,4.18l2.86-1.13v1.18
		L0.71,5.36V4.18z M3.57,17.85l-2.86,1.13V17.8l2.86-1.13V17.85z M19.29,8.99l-4.93-1.12V6.76l4.93,1.12V8.99z M14.35,9.73V8.61
		l4.93,1.12v1.12L14.35,9.73z M14.35,11.58v-1.12l4.93,1.12v1.12L14.35,11.58z M14.35,13.43v-1.12l4.93,1.12v1.12L14.35,13.43z
		 M14.35,14.16l4.93,1.12v1.12l-4.93-1.12V14.16z M11.59,5.54V1.88L3.89,0L0,1.94V20h6.11h2.61h2.16h0.71h4.39h2.27H20V5.84
		l-6.05-1.48L11.59,5.54z"/>
</g>
</svg>
