<?xml version="1.0" encoding="utf-8"?>
<!-- Generator: Adobe Illustrator 26.4.1, SVG Export Plug-In . SVG Version: 6.00 Build 0)  -->
<svg version="1.1" id="Layer_1" xmlns="http://www.w3.org/2000/svg" xmlns:xlink="http://www.w3.org/1999/xlink" x="0px" y="0px"
	 viewBox="0 0 19 19" style="enable-background:new 0 0 19 19;" xml:space="preserve">
<style type="text/css">
	.st0{fill:#1b3b78;}
</style>
<path class="st0" d="M17.3,16.63c0,0.19-0.15,0.34-0.34,0.34h-6.79c-0.19,0-0.34-0.15-0.34-0.34c0-0.19,0.15-0.34,0.34-0.34h6.79
	C17.15,16.29,17.3,16.44,17.3,16.63z M17.3,14.59c0,0.19-0.15,0.34-0.34,0.34h-6.79c-0.19,0-0.34-0.15-0.34-0.34
	c0-0.19,0.15-0.34,0.34-0.34h6.79C17.15,14.25,17.3,14.4,17.3,14.59z M17.3,12.55c0,0.19-0.15,0.34-0.34,0.34h-6.79
	c-0.19,0-0.34-0.15-0.34-0.34c0-0.19,0.15-0.34,0.34-0.34h6.79C17.15,12.21,17.3,12.37,17.3,12.55z M17.3,10.52
	c0,0.19-0.15,0.34-0.34,0.34h-6.79c-0.19,0-0.34-0.15-0.34-0.34c0-0.19,0.15-0.34,0.34-0.34h6.79C17.15,10.18,17.3,10.33,17.3,10.52
	z M17.3,8.48c0,0.19-0.15,0.34-0.34,0.34H7.12c-0.19,0-0.34-0.15-0.34-0.34c0-0.19,0.15-0.34,0.34-0.34h9.84
	C17.15,8.14,17.3,8.29,17.3,8.48z M17.3,6.45c0,0.19-0.15,0.34-0.34,0.34H7.12c-0.19,0-0.34-0.15-0.34-0.34s0.15-0.34,0.34-0.34
	h9.84C17.15,6.11,17.3,6.26,17.3,6.45z M6.79,4.41c0-0.19,0.15-0.34,0.34-0.34h4.75c0.19,0,0.34,0.15,0.34,0.34
	c0,0.19-0.15,0.34-0.34,0.34H7.12C6.94,4.75,6.79,4.6,6.79,4.41z M6.79,2.38c0-0.19,0.15-0.34,0.34-0.34h4.75
	c0.19,0,0.34,0.15,0.34,0.34c0,0.19-0.15,0.34-0.34,0.34H7.12C6.94,2.71,6.79,2.56,6.79,2.38z M4.07,12.21v-0.34
	c0-0.19,0.15-0.34,0.34-0.34c0.19,0,0.34,0.15,0.34,0.34v0.34c0,0.19-0.15,0.34-0.34,0.34C4.22,12.55,4.07,12.4,4.07,12.21z
	 M5.77,17.3c0,0.19-0.15,0.34-0.34,0.34H4.41c-0.19,0-0.34-0.15-0.34-0.34v-3.73H3.39c-0.19,0-0.34-0.15-0.34-0.34
	c0-0.19,0.15-0.34,0.34-0.34h1.02c0.19,0,0.34,0.15,0.34,0.34v3.73h0.68C5.62,16.96,5.77,17.12,5.77,17.3z M17.3,18.32H8.47
	c0.22-0.28,0.35-0.63,0.35-1.02v-5.43c0-0.94-0.76-1.7-1.7-1.7H5.77V1.7c0-0.56,0.46-1.02,1.02-1.02h6.79v4.07
	c0,0.19,0.15,0.34,0.34,0.34h4.41V17.3C18.32,17.86,17.86,18.32,17.3,18.32z M0.68,17.3v-5.43c0-0.56,0.46-1.02,1.02-1.02h5.43
	c0.56,0,1.02,0.46,1.02,1.02v5.43c0,0.56-0.46,1.02-1.02,1.02H1.7C1.14,18.32,0.68,17.86,0.68,17.3z M14.25,1.12l3.55,3.29h-3.55
	V1.12z M19,4.73c0-0.03-0.01-0.06-0.02-0.09c0-0.01-0.01-0.02-0.01-0.03c-0.01-0.03-0.03-0.05-0.05-0.08
	c-0.01-0.01-0.01-0.01-0.02-0.02c0,0,0,0,0-0.01l-4.75-4.41c-0.03-0.03-0.06-0.04-0.09-0.06c-0.01,0-0.02,0-0.02-0.01
	c-0.03-0.01-0.06-0.02-0.1-0.02c-0.01,0-0.01,0-0.02,0H6.79c-0.94,0-1.7,0.76-1.7,1.7v8.48H1.7c-0.94,0-1.7,0.76-1.7,1.7v5.43
	C0,18.24,0.76,19,1.7,19h5.43H17.3c0.94,0,1.7-0.76,1.7-1.7V4.75C19,4.74,19,4.74,19,4.73z"/>
</svg>
