<?xml version="1.0" encoding="utf-8"?>
<!-- Generator: Adobe Illustrator 26.4.1, SVG Export Plug-In . SVG Version: 6.00 Build 0)  -->
<svg version="1.1" id="Layer_1" xmlns="http://www.w3.org/2000/svg" xmlns:xlink="http://www.w3.org/1999/xlink" x="0px" y="0px"
	 viewBox="0 0 17 17" style="enable-background:new 0 0 17 17;" xml:space="preserve">
<style type="text/css">
	.st0{fill:#1b3b78;}
</style>
<path class="st0" d="M12.17,2.84c-0.17,0-0.33,0.03-0.49,0.1C11.52,3,11.39,3.09,11.27,3.21c-0.12,0.12-0.21,0.26-0.28,0.41
	c-0.06,0.16-0.1,0.32-0.1,0.49c0,0.17,0.03,0.33,0.1,0.49c0.06,0.16,0.16,0.29,0.28,0.41c0.12,0.12,0.26,0.21,0.41,0.28
	c0.16,0.07,0.32,0.1,0.49,0.1c0.17,0,0.33-0.03,0.49-0.1c0.16-0.06,0.29-0.16,0.41-0.28c0.12-0.12,0.21-0.26,0.28-0.41
	c0.06-0.16,0.1-0.32,0.1-0.49c0-0.17-0.03-0.33-0.1-0.49c-0.06-0.16-0.16-0.29-0.28-0.41C12.95,3.1,12.81,3,12.66,2.94
	C12.5,2.87,12.34,2.84,12.17,2.84L12.17,2.84z M12.17,6.28c-0.29,0-0.56-0.05-0.83-0.16c-0.27-0.11-0.5-0.27-0.7-0.47
	c-0.2-0.2-0.36-0.44-0.47-0.7C10.05,4.68,10,4.4,10,4.12c0-0.29,0.05-0.56,0.16-0.83c0.11-0.27,0.27-0.5,0.47-0.7
	c0.2-0.2,0.44-0.36,0.7-0.47C11.6,2,11.88,1.95,12.17,1.95c0.29,0,0.56,0.06,0.83,0.17c0.27,0.11,0.5,0.27,0.7,0.47
	c0.2,0.2,0.36,0.44,0.47,0.7c0.11,0.27,0.16,0.54,0.16,0.83c0,0.29-0.06,0.56-0.17,0.83c-0.11,0.27-0.27,0.5-0.47,0.7
	c-0.2,0.2-0.44,0.36-0.7,0.47C12.73,6.23,12.46,6.28,12.17,6.28z M5.57,7.37c0.12,0,0.23,0.04,0.32,0.13l4.61,4.61l2.65-2.65
	c0.09-0.09,0.19-0.13,0.32-0.13s0.23,0.04,0.32,0.13l2.33,2.33V2.73c0-0.24-0.05-0.48-0.14-0.7c-0.09-0.22-0.23-0.42-0.4-0.59
	c-0.17-0.17-0.37-0.3-0.59-0.4c-0.22-0.09-0.46-0.14-0.7-0.14H2.73c-0.24,0-0.48,0.05-0.7,0.14C1.8,1.13,1.6,1.26,1.43,1.43
	s-0.3,0.37-0.4,0.59C0.94,2.25,0.9,2.48,0.89,2.73v9.13L5.25,7.5C5.34,7.41,5.44,7.37,5.57,7.37z M0.89,13.12v1.15
	c0,0.24,0.05,0.48,0.14,0.7c0.09,0.22,0.23,0.42,0.4,0.59s0.37,0.3,0.59,0.4c0.22,0.09,0.46,0.14,0.7,0.14h11.55
	c0.24,0,0.48-0.05,0.7-0.14c0.22-0.09,0.42-0.23,0.59-0.4c0.17-0.17,0.3-0.37,0.4-0.59c0.09-0.22,0.14-0.46,0.14-0.7v-1.21
	l-2.65-2.65l-2.65,2.65c-0.09,0.09-0.19,0.13-0.32,0.13c-0.12,0-0.23-0.04-0.32-0.13L5.57,8.45L0.89,13.12z M14.27,17H2.73
	c-0.36,0-0.71-0.07-1.04-0.21c-0.33-0.14-0.63-0.34-0.88-0.59c-0.26-0.26-0.45-0.55-0.59-0.88C0.07,14.98,0,14.64,0,14.27V2.73
	c0-0.36,0.07-0.71,0.21-1.04C0.35,1.35,0.54,1.05,0.8,0.8c0.26-0.26,0.55-0.45,0.88-0.59C2.02,0.07,2.36,0,2.73,0h11.55
	c0.36,0,0.71,0.07,1.04,0.21c0.33,0.14,0.63,0.34,0.88,0.59c0.26,0.26,0.45,0.55,0.59,0.88C16.93,2.02,17,2.36,17,2.73v11.55
	c0,0.36-0.07,0.71-0.21,1.04c-0.14,0.33-0.34,0.63-0.59,0.88c-0.26,0.26-0.55,0.45-0.88,0.59C14.98,16.93,14.64,17,14.27,17z"/>
</svg>
