<?xml version="1.0" encoding="utf-8"?>
<!-- Generator: Adobe Illustrator 26.4.1, SVG Export Plug-In . SVG Version: 6.00 Build 0)  -->
<svg version="1.1" id="Layer_1" xmlns="http://www.w3.org/2000/svg" xmlns:xlink="http://www.w3.org/1999/xlink" x="0px" y="0px"
	 viewBox="0 0 20 20" style="enable-background:new 0 0 20 20;" xml:space="preserve">
<style type="text/css">
	.st0{fill:#97004E;}
</style>
<g>
	<path class="st0" d="M12.97,7.41c0,0.17,0.14,0.31,0.31,0.31c0.17,0,0.31-0.14,0.31-0.31V7.12c0-0.17-0.14-0.31-0.31-0.31
		c-0.17,0-0.31,0.14-0.31,0.31V7.41z"/>
	<path class="st0" d="M13.28,6.59c0.17,0,0.31-0.14,0.31-0.31V6c0-0.17-0.14-0.31-0.31-0.31c-0.17,0-0.31,0.14-0.31,0.31v0.28
		C12.97,6.45,13.11,6.59,13.28,6.59z"/>
	<path class="st0" d="M12.97,8.53c0,0.17,0.14,0.31,0.31,0.31c0.17,0,0.31-0.14,0.31-0.31V8.25c0-0.17-0.14-0.31-0.31-0.31
		c-0.17,0-0.31,0.14-0.31,0.31V8.53z"/>
	<path class="st0" d="M9.22,9.69c-0.17,0-0.31,0.14-0.31,0.31c0,0.17,0.14,0.31,0.31,0.31h0.31c0.17,0,0.31-0.14,0.31-0.31
		c0-0.17-0.14-0.31-0.31-0.31H9.22z"/>
	<path class="st0" d="M7.97,9.69C7.8,9.69,7.66,9.83,7.66,10c0,0.17,0.14,0.31,0.31,0.31h0.31c0.17,0,0.31-0.14,0.31-0.31
		c0-0.17-0.14-0.31-0.31-0.31H7.97z"/>
	<path class="st0" d="M11.72,9.69c-0.17,0-0.31,0.14-0.31,0.31c0,0.17,0.14,0.31,0.31,0.31h0.31c0.17,0,0.31-0.14,0.31-0.31
		c0-0.17-0.14-0.31-0.31-0.31H11.72z"/>
	<path class="st0" d="M12.66,10c0,0.17,0.14,0.31,0.31,0.31h0.31h0.31c0.17,0,0.31-0.14,0.31-0.31c0-0.17-0.14-0.31-0.31-0.31h-0.05
		c0.03-0.05,0.05-0.09,0.05-0.16V9.37c0-0.17-0.14-0.31-0.31-0.31c-0.17,0-0.31,0.14-0.31,0.31v0.16c0,0.06,0.02,0.11,0.05,0.16
		h-0.05C12.8,9.69,12.66,9.83,12.66,10z"/>
	<path class="st0" d="M10.94,10.27c0.09-0.05,0.16-0.16,0.16-0.27c0-0.17-0.14-0.31-0.31-0.31h-0.31c-0.17,0-0.31,0.14-0.31,0.31
		c0,0.11,0.06,0.22,0.16,0.27v0.05c0,0.17,0.14,0.31,0.31,0.31c0.17,0,0.31-0.14,0.31-0.31V10.27z"/>
	<path class="st0" d="M10.94,12.5c0-0.17-0.14-0.31-0.31-0.31c-0.17,0-0.31,0.14-0.31,0.31v0.31c0,0.17,0.14,0.31,0.31,0.31
		c0.17,0,0.31-0.14,0.31-0.31V12.5z"/>
	<path class="st0" d="M10.62,13.44c-0.17,0-0.31,0.14-0.31,0.31v0.31c0,0.17,0.14,0.31,0.31,0.31c0.17,0,0.31-0.14,0.31-0.31v-0.31
		C10.94,13.58,10.8,13.44,10.62,13.44z"/>
	<path class="st0" d="M10.94,11.25c0-0.17-0.14-0.31-0.31-0.31c-0.17,0-0.31,0.14-0.31,0.31v0.31c0,0.17,0.14,0.31,0.31,0.31
		c0.17,0,0.31-0.14,0.31-0.31V11.25z"/>
	<path class="st0" d="M18.12,15.31v-0.63l-0.91,0.94h0.59C17.98,15.62,18.12,15.48,18.12,15.31z"/>
	<path class="st0" d="M18.12,9.06V5c0-0.17-0.14-0.31-0.31-0.31H6.25C6.08,4.69,5.94,4.83,5.94,5v10.31c0,0.17,0.14,0.31,0.31,0.31
		h4.87c0.02-0.02,0.02-0.03,0.03-0.03L11.73,15h-0.8c0-0.17-0.14-0.31-0.31-0.31c-0.17,0-0.31,0.14-0.31,0.31H6.56v-4.73
		c0.05,0.03,0.09,0.05,0.16,0.05h0.31c0.17,0,0.31-0.14,0.31-0.31c0-0.17-0.14-0.31-0.31-0.31H6.72c-0.06,0-0.11,0.02-0.16,0.05
		V5.31h6.45c0.05,0.09,0.16,0.16,0.27,0.16c0.11,0,0.22-0.06,0.27-0.16h3.95v3.92C17.69,9.14,17.91,9.08,18.12,9.06z"/>
	<path class="st0" d="M15.78,9.69c-0.17,0-0.31,0.14-0.31,0.31c0,0.17,0.14,0.31,0.31,0.31h0.31c0.17,0,0.31-0.14,0.31-0.31
		c0-0.17-0.14-0.31-0.31-0.31H15.78z"/>
	<path class="st0" d="M14.53,9.69c-0.17,0-0.31,0.14-0.31,0.31c0,0.17,0.14,0.31,0.31,0.31h0.31c0.17,0,0.31-0.14,0.31-0.31
		c0-0.17-0.14-0.31-0.31-0.31H14.53z"/>
	<path class="st0" d="M0.62,1.94C0.72,1.7,1.2,0.62,2.5,0.62c1.34,0,1.8,1.08,1.87,1.3v12.94c-0.41-0.42-1.03-0.8-1.87-0.8
		c-0.02,0-0.02,0-0.03,0c-0.83,0-1.44,0.36-1.84,0.78V1.94z M2.5,18.75h6.94l0.33-0.63H2.5c-1.03,0-1.87-0.84-1.87-1.87V16
		c0.08-0.22,0.56-1.31,1.84-1.31c0.02,0,0.02,0,0.03,0c1.42,0.02,1.87,1.3,1.89,1.34c0.05,0.13,0.16,0.22,0.3,0.22
		c0.02,0,0.03,0,0.05,0C4.89,16.22,5,16.09,5,15.94V2.19h14.37v7.22c0.17,0.11,0.33,0.25,0.47,0.41L20,9.98v-7.8
		c0-0.34-0.28-0.62-0.62-0.62H4.91C4.62,0.92,3.89,0,2.5,0C0.98,0,0.22,1.16,0.02,1.78c0,0,0,0,0,0.02C0,1.81,0,1.84,0,1.87v14.06
		v0.31C0,17.63,1.12,18.75,2.5,18.75z"/>
	<path class="st0" d="M14.26,18.63c-0.03,0.05-0.08,0.08-0.12,0.13h5.23c0.34,0,0.62-0.28,0.62-0.63v-5.34l-0.62,0.64v4.7h-4.61
		L14.26,18.63z"/>
	<path class="st0" d="M18,10.39c0.2-0.17,0.62-0.06,0.91,0.27l0.25,0.27c0.16,0.17,0.23,0.36,0.22,0.53c0,0.14-0.06,0.25-0.16,0.34
		l-0.02,0.02l-0.77,0.78l-1.3-1.33L18,10.39z M16.7,11.72l1.3,1.33l-4.5,4.58c-0.09-0.03-0.19-0.03-0.27-0.03
		c-0.08,0-0.09,0-0.11-0.02c-0.02-0.02-0.02-0.02-0.03-0.11c0-0.05,0-0.12-0.02-0.2l1.98-2.03c0.12-0.13,0.12-0.33,0-0.44
		c-0.12-0.12-0.33-0.12-0.44,0l-1.94,1.98c-0.12-0.05-0.23-0.06-0.33-0.06c-0.08,0-0.09,0-0.11-0.02c-0.02-0.02-0.02-0.02-0.03-0.11
		c0-0.06,0-0.17-0.03-0.27L16.7,11.72z M11.75,17.05c0.02,0.03,0.05,0.05,0.06,0.08c0.2,0.2,0.41,0.2,0.53,0.2
		c0.08,0,0.09,0,0.11,0.02c0.02,0.02,0.02,0.02,0.03,0.11c0,0.12,0.02,0.34,0.2,0.53c0.02,0.02,0.03,0.03,0.05,0.05l-1.2,0.56
		c-0.02-0.02-0.03-0.03-0.03-0.05l-0.36-0.37L11.75,17.05z M10.84,18.78l0.11,0.13l-0.23,0.11L10.84,18.78z M9.78,19.91
		C9.84,19.97,9.92,20,10,20c0.05,0,0.09-0.02,0.14-0.03l3.53-1.67h0.02c0.02-0.02,0.03-0.02,0.05-0.03l0.02-0.02l0.02-0.02
		l0.02-0.02c0,0,0,0,0.02-0.02l4.84-4.94c0,0,0,0,0.02-0.02l0.02-0.02l0.97-0.98c0.22-0.2,0.34-0.47,0.36-0.77
		c0.02-0.34-0.11-0.7-0.37-0.98l-0.25-0.27c-0.53-0.59-1.33-0.72-1.8-0.3l-0.02,0.02l-5.97,6.08c-0.03,0.03-0.06,0.08-0.08,0.11
		l-1.8,3.41C9.66,19.66,9.69,19.81,9.78,19.91z"/>
	<path class="st0" d="M15.51,14.66c0.08,0,0.16-0.03,0.22-0.09l0.22-0.22c0.12-0.12,0.12-0.33,0-0.44c-0.12-0.13-0.33-0.13-0.44,0
		l-0.22,0.22c-0.12,0.12-0.12,0.33,0,0.44C15.34,14.62,15.42,14.66,15.51,14.66z"/>
</g>
</svg>
