<svg xmlns="http://www.w3.org/2000/svg" viewBox="0 0 1029.04 182.84">
    <defs>
        <style>.cls-1{fill:#fff;}</style>
    </defs>
    <g id="Layer_2" data-name="Layer 2">
        <g id="Шар_1" data-name="Шар 1">
            <path class="cls-1"
                  d="M265.55,49.42a24.66,24.66,0,0,0,8.59-19.29C274.14,13.09,260.2,2,243,2H204.44v98.56h41.4c17.6,0,31.82-11.4,31.82-28.86A25.46,25.46,0,0,0,265.55,49.42ZM227,23.09H243c5.21,0,8.59,3.66,8.59,8.73A8.32,8.32,0,0,1,243,40.55H227Zm18.87,56.32H227V60.55h18.87c5.63,0,9.29,3.94,9.29,9.43S251.47,79.41,245.84,79.41Z"/>
            <polygon class="cls-1"
                     points="322.02 1.97 299.49 1.97 299.49 100.53 357.22 100.53 357.22 78.85 322.02 78.85 322.02 1.97"/>
            <path class="cls-1"
                  d="M467.75,100.53,434.24,2H405.52L372,100.53h24.64L401.58,85h36.61l4.92,15.49ZM408.34,63.92l11.54-36.18,11.55,36.18Z"/>
            <path class="cls-1"
                  d="M580.83,45.62H531.41V65.33h26.33c-3.52,9.43-12.11,15.21-25.21,15.21-19.14,0-31-12.25-31-29,0-17.32,12.39-29.56,29-29.56,11.12,0,20,5.06,24.08,11.54l19.15-11C565.48,9.29,549.57,0,530.7,0A51.11,51.11,0,0,0,479,51.39c0,28.3,22.25,51.11,53.22,51.11,27.6,0,48.58-18.3,48.58-48.43Z"/>
            <path class="cls-1"
                  d="M651.1,0a50.81,50.81,0,0,0-51.25,51.25,51.25,51.25,0,0,0,102.5,0A50.81,50.81,0,0,0,651.1,0Zm0,80.54c-16.05,0-28.72-11.69-28.72-29.29S635.05,22,651.1,22s28.72,11.68,28.72,29.28S667.15,80.54,651.1,80.54Z"/>
            <polygon class="cls-1"
                     points="805.85 1.97 781.21 1.97 759.39 74.48 737.56 1.97 712.92 1.97 745.02 100.53 773.75 100.53 805.85 1.97"/>
            <rect class="cls-1" x="824.87" y="1.97" width="22.53" height="98.56"/>
            <path class="cls-1"
                  d="M908.65,80.54c-11.12,0-17.17-5.5-20.7-13.66L868.52,78.14C874,92.64,887.25,102.5,908,102.5c21.4,0,36.61-11.26,36.61-30.27,0-20.84-16.76-26.05-31.69-30.55-15.34-4.65-17.74-7.75-17.74-12.25,0-3.95,3.53-7.46,10.56-7.46,9,0,13.66,4.36,17,11.4l19-11.12C934.56,7.75,921.89,0,905.69,0c-17,0-33.08,11-33.08,30s14.36,25.91,29,30S922,66.46,922,72.51C922,76.31,919.35,80.54,908.65,80.54Z"/>
            <polygon class="cls-1"
                     points="955.83 1.97 955.83 23.65 981.17 23.65 981.17 100.53 1003.7 100.53 1003.7 23.65 1029.04 23.65 1029.04 1.97 955.83 1.97"/>
            <path class="cls-1"
                  d="M230.59,140.24c-2.15-2.47-5.34-4-9.71-4-8.53,0-15.57,7.49-15.57,17.2s7,17.21,15.57,17.21c4.37,0,7.56-1.5,9.71-4v3.07h9.78V137.18h-9.78Zm-7.75,21.18c-4.5,0-7.76-3.06-7.76-7.95s3.26-7.95,7.76-7.95,7.75,3.07,7.75,7.95S227.34,161.42,222.84,161.42Z"/>
            <polygon class="cls-1"
                     points="252.43 169.77 262.21 169.77 262.21 146.56 275.24 146.56 275.24 137.18 252.43 137.18 252.43 169.77"/>
            <path class="cls-1"
                  d="M298.77,136.27c-10.29,0-17.33,7.49-17.33,17.2s6.91,17.21,18.05,17.21c6.19,0,11-2.28,14.21-6.71l-7.82-4.5a8.55,8.55,0,0,1-6.26,2.48c-3.58,0-6.58-1.18-7.82-4.57h23.14a18.92,18.92,0,0,0,.39-3.91C315.33,143.63,308.29,136.27,298.77,136.27Zm-7.16,13.81c.91-3.32,3.38-5.15,7.1-5.15a6.72,6.72,0,0,1,6.91,5.15Z"/>
            <polygon class="cls-1"
                     points="346.62 148.91 335.54 148.91 335.54 137.18 325.76 137.18 325.76 169.77 335.54 169.77 335.54 158.04 346.62 158.04 346.62 169.77 356.39 169.77 356.39 137.18 346.62 137.18 346.62 148.91"/>
            <polygon class="cls-1"
                     points="365.52 146.56 375.36 146.56 375.36 169.77 385.14 169.77 385.14 146.56 394.85 146.56 394.85 137.18 365.52 137.18 365.52 146.56"/>
            <path class="cls-1"
                  d="M418.19,145.91a6.76,6.76,0,0,1,6.32,3.65l8.53-4.95a17.24,17.24,0,1,0,0,17.66l-8.53-4.89a6.7,6.7,0,0,1-6.32,3.66,7.57,7.57,0,0,1,0-15.13Z"/>
            <polygon class="cls-1"
                     points="438.91 146.56 448.75 146.56 448.75 169.77 458.53 169.77 458.53 146.56 468.24 146.56 468.24 137.18 438.91 137.18 438.91 146.56"/>
            <path class="cls-1"
                  d="M501.68,153.08a7.81,7.81,0,0,0,3.06-6.58c0-5.41-3.84-9.32-11.08-9.32H477.37v32.59H495c7.23,0,11.08-3.91,11.08-9.32A8,8,0,0,0,501.68,153.08ZM486.49,145h6.13c1.76,0,2.87.72,2.87,2.35s-1.11,2.21-2.87,2.21h-6.13Zm7.17,16.68h-7.17V157h7.17c1.7,0,2.87.72,2.87,2.28S495.36,161.68,493.66,161.68Z"/>
            <path class="cls-1"
                  d="M531.47,136.27a17.21,17.21,0,1,0,17.27,17.2A17.08,17.08,0,0,0,531.47,136.27Zm0,24.9a7.7,7.7,0,1,1,7.49-7.7A7.32,7.32,0,0,1,531.47,161.17Z"/>
            <polygon class="cls-1"
                     points="601.21 148.91 590.13 148.91 590.13 137.18 580.36 137.18 580.36 169.77 590.13 169.77 590.13 158.04 601.21 158.04 601.21 169.77 610.99 169.77 610.99 137.18 601.21 137.18 601.21 148.91"/>
            <path class="cls-1"
                  d="M638.75,136.27c-10.29,0-17.33,7.49-17.33,17.2s6.91,17.21,18.05,17.21c6.19,0,11-2.28,14.21-6.71l-7.82-4.5A8.55,8.55,0,0,1,639.6,162c-3.58,0-6.58-1.18-7.82-4.57h23.14a18.92,18.92,0,0,0,.39-3.91C655.31,143.63,648.27,136.27,638.75,136.27Zm-7.16,13.81c.91-3.32,3.38-5.15,7.1-5.15a6.72,6.72,0,0,1,6.91,5.15Z"/>
            <path class="cls-1"
                  d="M685.23,136.27c-4.37,0-7.56,1.5-9.71,4v-3.06h-9.78V182.8h9.78V166.7c2.15,2.48,5.34,4,9.71,4,8.54,0,15.58-7.5,15.58-17.21S693.77,136.27,685.23,136.27Zm-2,25.15c-4.49,0-7.75-3.06-7.75-7.95s3.26-7.95,7.75-7.95,7.76,3.07,7.76,7.95S687.77,161.42,683.27,161.42Z"/>
            <path class="cls-1"
                  d="M724.34,157.19l-7.56-20H706.35l12.77,32c-1.49,3.45-3.58,4.5-8,4.5v9.12c8.47.46,14.93-3.65,18.58-14l11.14-31.61H730.46Z"/>
            <polygon class="cls-1"
                     points="779.93 137.18 768.73 137.18 763.05 145.26 757.38 137.18 746.17 137.18 757.45 153.21 745.78 169.77 756.99 169.77 763.05 161.16 769.11 169.77 780.32 169.77 768.66 153.21 779.93 137.18"/>
            <path class="cls-1"
                  d="M802.16,136.27a17.21,17.21,0,1,0,17.27,17.2A17.08,17.08,0,0,0,802.16,136.27Zm0,24.9a7.7,7.7,0,1,1,7.5-7.7A7.31,7.31,0,0,1,802.16,161.17Z"/>
            <polygon class="cls-1"
                     points="847.14 149.5 839.25 137.18 829.87 137.18 829.87 169.77 839.25 169.77 839.25 152.95 846.55 164.29 847.73 164.29 855.02 152.95 855.02 169.77 864.41 169.77 864.41 137.18 855.02 137.18 847.14 149.5"/>
            <path class="cls-1"
                  d="M892.11,136.27a17.21,17.21,0,1,0,17.27,17.2A17.08,17.08,0,0,0,892.11,136.27Zm0,24.9a7.7,7.7,0,1,1,7.5-7.7A7.31,7.31,0,0,1,892.11,161.17Z"/>
            <path class="cls-1"
                  d="M935.33,145.91a6.76,6.76,0,0,1,6.32,3.65l8.54-4.95a17.24,17.24,0,1,0,0,17.66l-8.54-4.89a6.7,6.7,0,0,1-6.32,3.66,7.57,7.57,0,0,1,0-15.13Z"/>
            <polygon class="cls-1"
                     points="956.06 146.56 965.9 146.56 965.9 169.77 975.67 169.77 975.67 146.56 985.39 146.56 985.39 137.18 956.06 137.18 956.06 146.56"/>
            <path class="cls-1" d="M999.4,122.58a5.87,5.87,0,1,0,5.87,5.87A5.93,5.93,0,0,0,999.4,122.58Z"/>
            <rect class="cls-1" x="994.51" y="137.18" width="9.78" height="32.59"/>
            <path class="cls-1" d="M87.26,2.17H0V19H136.24C125.72,5.61,105.57,2.17,87.26,2.17Z"/>
            <path class="cls-1" d="M0,170.07H86.33c13.5,0,26.79-1.8,38.06-6.33H0Z"/>
            <path class="cls-1" d="M0,86.7H145.75a42.23,42.23,0,0,0-13.7-11.13H0Z"/>
            <path class="cls-1"
                  d="M0,103.62H50v-4.2h33.6c6.15,0,11,1.45,14.28,4.2h55.82a44.93,44.93,0,0,0-3.78-10.42H0Z"/>
            <path class="cls-1"
                  d="M83.59,133.82H50v-5.35H0v9H151.7a50.69,50.69,0,0,0,2.48-9H99.24C96,132,90.83,133.82,83.59,133.82Z"/>
            <path class="cls-1" d="M0,154.38H140a42.62,42.62,0,0,0,7.27-8.27H0Z"/>
            <rect class="cls-1" y="110.84" width="49.99" height="9.7"/>
            <path class="cls-1"
                  d="M103.16,116.88a24.77,24.77,0,0,1-.33,3.66h52.25c0-1.13.09-2.29.09-3.47,0-2.15-.13-4.21-.32-6.23h-52.4A21.18,21.18,0,0,1,103.16,116.88Z"/>
            <path class="cls-1"
                  d="M0,22.67V36H50V32.86H76.73c5.3,0,9.39,1.07,12.32,3.09h54.07a35.81,35.81,0,0,0-4.41-13.28Z"/>
            <path class="cls-1"
                  d="M94.56,47.88a15.62,15.62,0,0,1-.8,5h48.56a37.93,37.93,0,0,0,1.26-10.19c0-.81,0-1.6-.07-2.38H92.91A16.27,16.27,0,0,1,94.56,47.88Z"/>
            <path class="cls-1"
                  d="M79.08,62.37H50V57.94H0V69.79H129.72c4.64-3.39,8.26-7.11,10.64-11.85H90.7C88,60.7,84.06,62.37,79.08,62.37Z"/>
            <rect class="cls-1" y="40.3" width="49.99" height="12.56"/>
        </g>
    </g>
</svg>
