<svg xmlns="http://www.w3.org/2000/svg" viewBox="0 0 462.31 123.1"><defs><style>.cls-1,.cls-2{fill:#fff;}.cls-1{fill-rule:evenodd;}</style></defs><g id="Layer_2" data-name="Layer 2"><g id="Шар_1" data-name="Шар 1"><path class="cls-1" d="M458.65,65.89c-3.51,0-6.34,0-8.66-.16l-1.73,0c-1.47,0-2.68-.07-3.69-.07l-.85,0c-.51,0-1.14,0-1.82,0-1.1,0-2.28.11-3.25.11-1.31,0-1.41-.76-1.41-1,0-.49.39-1,1.25-1a6.18,6.18,0,0,0,1.53-.15c.6-.13.85-.61,1-2,.21-1.89.21-5.46.21-9.59v-8c0-6.9,0-8.15-.05-9.58s-.35-1.62-1.66-2a8.43,8.43,0,0,0-1.73-.14c-1,0-1.31-.53-1.31-1,0-.93,1.19-.93,1.57-.93,1.42,0,3,0,4.37.06l2.41,0h2.26l7.15,0c2.46,0,3.18,0,3.36,0a13,13,0,0,0,1.61-.2l.32-.06a1.77,1.77,0,0,0,.25-.08,1.7,1.7,0,0,1,.57-.14.83.83,0,0,1,.83.93,2.13,2.13,0,0,1-.08.51,14.08,14.08,0,0,0-.3,2.45c0,.2-.05.56-.08,1-.05.8-.12,1.71-.19,2.08s-.27,1.16-1,1.16c-.4,0-.88-.19-.88-1.1a3.7,3.7,0,0,0-.26-1.42c-.31-.67-.55-1.18-2.69-1.38-.75-.1-5.77-.2-7.13-.21v11.1c4.43,0,7.33,0,8-.1,1.1-.11,1.63-.2,1.91-.53a4.57,4.57,0,0,0,.35-.32,1.12,1.12,0,0,1,.78-.43.93.93,0,0,1,.88,1c0,.22-.05.62-.19,1.8l-.19,1.56c-.1.9-.21,2.71-.21,3,0,1.37-.68,1.51-1,1.51a.85.85,0,0,1-.93-.87c0-.12,0-.32,0-.51a10.32,10.32,0,0,0-.11-1.06c-.17-.54-.5-1.2-2.17-1.35-.79-.1-5.54-.2-7.08-.21V54.1c0,1.75,0,3.93,0,4.86.09,2.52.91,3.3,5.85,3.3a12.8,12.8,0,0,0,4.22-.54c1-.44,1.44-1.23,1.74-3,.08-.37.24-1.11,1-1.11a.8.8,0,0,1,.58.24,1.81,1.81,0,0,1,.36,1.33,31,31,0,0,1-.66,5.16C461.23,65.89,460.42,65.89,458.65,65.89Z"/><path class="cls-1" d="M424.9,66.32a3.21,3.21,0,0,1-2.29-1.12c-2.78-2.58-8.55-8.08-13.69-13.06-3.3-3.16-6.53-6.56-8.66-8.81-.65-.68-1.19-1.26-1.61-1.68l.5,17.42c.11,3.58.74,4.26,1.27,4.45a7.17,7.17,0,0,0,2.29.29c.9,0,1.3.49,1.3,1,0,.66-.53,1-1.57,1-2,0-3.66-.07-4.76-.12l-1.32,0-.8,0c-1,0-2.58.13-4.27.13-.47,0-1.57,0-1.57-1,0-.56.54-1,1.25-1a8.6,8.6,0,0,0,2-.2c.82-.21,1-1.1,1.06-5l.43-26.89c0-1.22.52-2.05,1.3-2.05s1.39.65,2.2,1.46l1,1c2.18,2.21,8,8.09,13.66,13.65,1.75,1.72,4.4,4.41,6.57,6.6l2.9,2.93-.45-19.13c-.06-2.87-.54-3.26-1.27-3.54a7.51,7.51,0,0,0-2.28-.24c-1.16,0-1.25-.75-1.25-1,0-.93,1.13-.93,1.68-.93,1.49,0,3,0,4.19.07l1.78,0,.86,0c.85,0,2.17-.08,3.73-.08.47,0,1.57,0,1.57.93,0,.49-.4,1-1.31,1a4,4,0,0,0-1.3.15c-.88.25-1.28.64-1.34,3.26l-.53,28.59C426.15,65.81,425.47,66.32,424.9,66.32Z"/><path class="cls-1" d="M385.54,65.79c-1.65,0-5.07,0-9-.11l-.26,0c-.79,0-1.61-.1-1.61-.87,0-.57.34-.9,1-1a.32.32,0,0,0,0-.32l-3.62-9.13H361l-2.51,6.09a7.87,7.87,0,0,0-.66,2.58c0,.35,0,.78,1.37.78h.69c1,0,1.19.62,1.19,1s-.16,1-1.24,1c-.79,0-1.74,0-2.68-.08s-1.82-.08-2.55-.08l-.93,0c-1,0-2.8.13-4.52.13-.33,0-1.35,0-1.35-1a1,1,0,0,1,1-1l.67,0,.72,0c1.73-.27,2.44-1.31,3.44-3.7L366,31.52c.46-1.11.95-2.12,1.85-2.12s1.34.69,1.84,1.73,2.41,5.61,4.61,10.77c2.68,6.3,5.72,13.43,7.35,17.17,1.84,4.16,3.11,4.46,3.66,4.59a10.38,10.38,0,0,0,1.64.15c.84,0,1.14.51,1.14,1C388.07,65.79,387,65.79,385.54,65.79ZM370.61,50.85l-4-10.53-4.16,10.53Z"/><path class="cls-1" d="M340,65.94c-2.95,0-5.24-.06-7.27-.11l-1.75,0c-2.25-.1-4.21-.17-6.5-.17h0c-.58,0-1.74,0-3,.06-.65,0-1.31,0-2,.06s-1.22.05-1.74.05c-1.37,0-1.57-.66-1.57-1.05s.18-.93,1.36-.93a8.18,8.18,0,0,0,1.81-.2c.71-.14.94-1,1.16-2.51.26-2.21.26-6.42.26-11.3V40.41c0-8.12,0-9.58-.11-11.27s-.49-2.29-1.9-2.59a7.9,7.9,0,0,0-1.65-.14c-1.17,0-1.41-.54-1.41-1,0-1,1.18-1,1.68-1,1.43,0,3.13,0,4.61.09,1.1,0,2.08.07,2.7.07s1.62,0,2.8-.07c1.53,0,3.28-.09,4.45-.09a1.93,1.93,0,0,1,1.38.36.88.88,0,0,1,.25.63c0,.65-.5,1-1.47,1a13,13,0,0,0-2,.15c-1,.18-1.44.61-1.55,2.57-.11,1.7-.11,3.16-.11,11.28V49.8c0,6.19,0,10.28.95,11.09.76.67,2,1,6.12,1,2.89,0,4.72-.09,5.88-1.33a6.23,6.23,0,0,0,1.25-2.91c.08-.83.45-1.25,1.09-1.25.93,0,.93.92.93,1.41a42.2,42.2,0,0,1-.82,6.27C343.43,65.65,342.82,65.94,340,65.94Z"/><path class="cls-1" d="M293.86,65.79a29.54,29.54,0,0,1-3.3-.11c-2.66-.24-4.29-1.26-6.36-3.07S274,51.33,272.28,49.2v2.9c0,4.14,0,7.72.11,9.68.11,1.38.6,1.75,1.29,1.88a17.22,17.22,0,0,0,2.21.15,1.08,1.08,0,0,1,1.14,1c0,.48-.37,1-1.41,1-1.57,0-3.41-.06-4.89-.11-1,0-1.79-.05-2.26-.05s-1.27,0-2.19.06c-1.23,0-2.66.1-3.73.1-1.31,0-1.41-.76-1.41-1,0-.49.38-1,1.25-1a6.29,6.29,0,0,0,1.53-.15c.6-.13.84-.61,1-2,.21-1.89.21-5.46.21-9.59v-8c0-6.9,0-8.15-.05-9.58s-.36-1.61-1.66-2a8.48,8.48,0,0,0-1.74-.14c-1,0-1.3-.53-1.3-1,0-.93,1.18-.93,1.57-.93,1.47,0,3.12,0,4.46.07l2.11,0,2.55,0c1.26,0,2.63-.06,3.47-.06.42,0,1.52,0,1.52.93a1,1,0,0,1-1.14,1,5.37,5.37,0,0,0-1.22.15c-.95.16-1.28.47-1.38,2s-.05,2.67-.05,9.57v1c.89-.92,2.27-2.3,3.72-3.75,2.3-2.31,4.68-4.7,5.43-5.54l.31-.34c1-1.15,1.91-2.14,1.91-2.69,0-.35-.15-.39-.26-.41-.33-.09-1-.27-1-1,0-.35.16-.93,1.25-.93l2.18,0c1,0,2,.06,2.68.06s1.72,0,2.73-.05,2-.05,2.76-.05c1.18,0,1.3.65,1.3.93,0,.45-.31,1-1.19,1a8.77,8.77,0,0,0-2.55.5,13.87,13.87,0,0,0-4.79,3.26c-1.61,1.5-7.75,7.31-9.61,9.31,2.18,2.62,10.69,11.47,12.38,13l1.11,1a17.19,17.19,0,0,0,5.14,3.74,6.27,6.27,0,0,0,2.69.55,1,1,0,0,1,1.14,1c0,1-1.18,1-1.62,1Z"/><path class="cls-1" d="M252.32,65.79a10.65,10.65,0,0,1-5.35-1c-2.05-1-3.75-3-6.58-6.81-1-1.38-2.13-2.94-3-4.18-.63-.91-1.18-1.7-1.42-2a.57.57,0,0,0-.47-.14l-4.08-.1v.51c0,3.37,0,7.51.27,9.59.16,1.39.36,1.82,1.38,2a15.47,15.47,0,0,0,2.22.16,1,1,0,0,1,1.09,1c0,.24-.1,1-1.46,1-1.81,0-4.16-.07-5.71-.12l-1.6,0c-.37,0-1.08,0-1.93.06-1.23,0-2.73.1-3.84.1-1.3,0-1.4-.76-1.4-1,0-.45.33-1,1.25-1a6.29,6.29,0,0,0,1.53-.15c.53-.11.83-.45,1-2,.21-1.89.21-5.46.21-9.59v-8c0-6.9,0-8.15,0-9.58s-.36-1.61-1.66-2a8.62,8.62,0,0,0-1.74-.14c-1,0-1.3-.53-1.3-1,0-.93,1.18-.93,1.57-.93,1.51,0,3.23,0,4.55.07l1.85,0c.82,0,2.34,0,3.82-.05s2.79-.05,3.49-.05c2.87,0,6.5.22,9.19,2a8.42,8.42,0,0,1,3.53,6.66c0,3.44-1.89,6.48-6.3,10.11l.33.4c3.88,4.78,7,8.56,9.61,11.22,2.36,2.37,3.89,2.68,4.63,2.83l.14,0a3.71,3.71,0,0,0,1,.1,1,1,0,0,1,1.09,1c0,.66-.47,1-1.41,1Zm-18.19-32a17,17,0,0,0-2.67.15s0,0,0,.15V47.61a.69.69,0,0,0,0,.28l.12.08a13,13,0,0,0,3.35.37c1.83,0,2.33-.15,3-.65,1.3-.92,2.84-2.75,2.84-6.32C240.77,35.8,237.19,33.82,234.13,33.82Z"/><path class="cls-1" d="M215.57,65.79c-1.64,0-5.07,0-9-.11l-.26,0c-.79,0-1.61-.1-1.61-.87,0-.57.35-.9,1-1a.37.37,0,0,0,0-.32l-3.63-9.13h-11l-2.51,6.09a7.87,7.87,0,0,0-.66,2.58c0,.35,0,.78,1.37.78H190c1,0,1.19.62,1.19,1s-.16,1-1.25,1c-.78,0-1.73,0-2.68-.08s-1.81-.08-2.55-.08l-.92,0c-1,0-2.8.13-4.52.13-.34,0-1.36,0-1.36-1a1,1,0,0,1,1-1l.67,0,.72,0c1.73-.27,2.44-1.31,3.44-3.7L196,31.52c.56-1.34,1-2.12,1.86-2.12,1,0,1.34.69,1.83,1.73.54,1.21,2.58,6,4.93,11.51,2.57,6,5.47,12.84,7,16.43,1.85,4.16,3.12,4.47,3.66,4.59a10.59,10.59,0,0,0,1.64.15c.85,0,1.15.51,1.15,1C218.11,65.79,217,65.79,215.57,65.79ZM200.65,50.85,196.6,40.32l-4.15,10.53Z"/><path class="cls-2" d="M153.1,94.44,152,98.33h-3.53l4.61-15.16h4.49l4.73,15.16h-3.71l-1.17-3.89Zm3.84-2.57L156,88.66c-.27-.9-.54-2-.77-2.93h0c-.23.9-.45,2-.7,2.93l-.9,3.21Z"/><path class="cls-2" d="M175.5,83.17V86h-5.74V98.33h-3.42V83.17Z"/><path class="cls-2" d="M188.34,91.92h-5.58v3.59H189v2.82h-9.65V83.17h9.33V86h-5.91v3.15h5.58Z"/><path class="cls-2" d="M196.77,83.17V89h5.64V83.17h3.42V98.33h-3.42V92h-5.64v6.35h-3.42V83.17Z"/><path class="cls-2" d="M213.77,86.05h-4.09V83.17h11.65v2.88h-4.14V98.33h-3.42Z"/><path class="cls-2" d="M235.52,97.92a10.15,10.15,0,0,1-3.87.65c-5.24,0-7.94-3.28-7.94-7.6,0-5.17,3.69-8,8.28-8a8.57,8.57,0,0,1,3.73.67l-.72,2.7a7.29,7.29,0,0,0-2.88-.56c-2.7,0-4.81,1.64-4.81,5,0,3,1.8,5,4.83,5a8.22,8.22,0,0,0,2.88-.5Z"/><path class="cls-2" d="M243.16,86.05h-4.09V83.17h11.65v2.88h-4.14V98.33h-3.42Z"/><path class="cls-2" d="M254.54,83.37a31.11,31.11,0,0,1,4.43-.31,8.54,8.54,0,0,1,4.5.85,3.29,3.29,0,0,1,1.8,3,3.44,3.44,0,0,1-2.5,3.22v0a3.78,3.78,0,0,1,3,3.71,4,4,0,0,1-1.58,3.24c-1.1.88-2.94,1.37-6,1.37a27.23,27.23,0,0,1-3.71-.22Zm3.4,5.8h1.12c1.82,0,2.77-.74,2.77-1.86s-.88-1.76-2.43-1.76a9.45,9.45,0,0,0-1.46.09Zm0,6.73a12.09,12.09,0,0,0,1.32,0c1.56,0,2.93-.6,2.93-2.2s-1.37-2.12-3.08-2.12h-1.17Z"/><path class="cls-2" d="M283.91,90.59c0,5-3,8-7.44,8s-7.13-3.39-7.13-7.73c0-4.54,2.92-7.94,7.37-7.94C281.37,82.9,283.91,86.39,283.91,90.59Zm-11,.18c0,3,1.39,5.08,3.69,5.08s3.64-2.2,3.64-5.15c0-2.74-1.28-5.08-3.64-5.08S273,87.82,273,90.77Z"/><path class="cls-2" d="M298.15,83.17V89h5.64V83.17h3.42V98.33h-3.42V92h-5.64v6.35h-3.42V83.17Z"/><path class="cls-2" d="M321.22,91.92h-5.58v3.59h6.23v2.82h-9.65V83.17h9.34V86h-5.92v3.15h5.58Z"/><path class="cls-2" d="M326.21,83.37a28.17,28.17,0,0,1,4.63-.31,7.3,7.3,0,0,1,4.64,1.21,4.37,4.37,0,0,1,1.61,3.51,4.74,4.74,0,0,1-1.39,3.6A7.12,7.12,0,0,1,330.78,93a5.67,5.67,0,0,1-1.17-.09v5.45h-3.4Zm3.4,6.88a4.92,4.92,0,0,0,1.14.09c1.83,0,2.95-.92,2.95-2.45s-1-2.22-2.7-2.22a6,6,0,0,0-1.39.11Z"/><path class="cls-2" d="M343.53,83.15l2.2,5.46c.43,1.06.72,2,1.08,2.9h.07c.18-.65.45-1.66.81-3l1.64-5.39H353l-2.86,7.49a24.08,24.08,0,0,1-3,6,5.27,5.27,0,0,1-5.71,1.76l.25-2.75a4.67,4.67,0,0,0,1.12.11,2.28,2.28,0,0,0,2.07-1.39.8.8,0,0,0-.06-.72l-5.11-10.52Z"/><path class="cls-2" d="M364.55,98.33l-1.37-2.75c-.56-1.06-.92-1.84-1.35-2.72h0c-.32.88-.7,1.66-1.19,2.72l-1.24,2.75h-3.91l4.38-7.67-4.23-7.49h3.94l1.33,2.77c.45.92.78,1.66,1.14,2.51h.05c.36-1,.65-1.64,1-2.51l1.28-2.77h3.92L364,90.57l4.49,7.76Z"/><path class="cls-2" d="M385.35,90.59c0,5-3,8-7.44,8s-7.12-3.39-7.12-7.73c0-4.54,2.92-7.94,7.37-7.94C382.81,82.9,385.35,86.39,385.35,90.59Zm-10.94.18c0,3,1.39,5.08,3.68,5.08s3.65-2.2,3.65-5.15c0-2.74-1.29-5.08-3.65-5.08S374.41,87.82,374.41,90.77Z"/><path class="cls-2" d="M402.31,92.52c-.06-1.82-.13-4-.13-6.22h-.05c-.49,1.93-1.12,4.09-1.71,5.86l-1.84,5.92H395.9l-1.62-5.85c-.49-1.8-1-4-1.37-5.93h0c-.07,2-.16,4.38-.25,6.27l-.29,5.76h-3.17l1-15.16h4.56l1.48,5.06c.5,1.75.95,3.64,1.29,5.42h.09c.4-1.76.92-3.76,1.43-5.44l1.6-5h4.5l.81,15.16h-3.33Z"/><path class="cls-2" d="M424.28,90.59c0,5-3,8-7.44,8s-7.13-3.39-7.13-7.73c0-4.54,2.93-7.94,7.38-7.94C421.74,82.9,424.28,86.39,424.28,90.59Zm-10.95.18c0,3,1.4,5.08,3.69,5.08s3.64-2.2,3.64-5.15c0-2.74-1.28-5.08-3.64-5.08S413.33,87.82,413.33,90.77Z"/><path class="cls-2" d="M439.64,97.92a10,10,0,0,1-3.86.65c-5.24,0-7.94-3.28-7.94-7.6,0-5.17,3.69-8,8.27-8a8.59,8.59,0,0,1,3.74.67l-.72,2.7a7.33,7.33,0,0,0-2.88-.56c-2.7,0-4.81,1.64-4.81,5,0,3,1.8,5,4.83,5a8.22,8.22,0,0,0,2.88-.5Z"/><path class="cls-2" d="M447.29,86.05H443.2V83.17h11.65v2.88h-4.14V98.33h-3.42Z"/><path class="cls-2" d="M462.11,83.17V98.33h-3.42V83.17Z"/><path class="cls-2" d="M51.06,64.27c8,0,13.79-5.71,13.79-13.58A9.88,9.88,0,0,0,62,43.86c-.85-.8-3.43-3.22-10.38-3.22-1.27,0-2.7,0-4.1.08s-2.57.08-3.63.08c-.62,0-1.58,0-2.68-.06-1.53-.05-3.36-.1-5-.1-.5,0-1.84,0-1.84,1.15,0,.52.27,1.15,1.57,1.15a10.94,10.94,0,0,1,1.94.14c1.34.29,1.67.74,1.77,2.43s.1,3.15.1,11.26v9.39c0,4.87,0,9.07-.26,11.26-.23,1.67-.48,2.27-1,2.37a7.62,7.62,0,0,1-1.77.2c-1.37,0-1.52.77-1.52,1.1s.17,1.21,1.73,1.21c1.22,0,2.84,0,4.24-.09,1,0,2-.07,2.48-.07s1.36,0,2.36.06c1.67,0,3.74.1,5.91.1,1.24,0,1.68-.63,1.68-1.21,0-.26-.11-1.1-1.52-1.1a20.58,20.58,0,0,1-2.63-.21c-1-.13-1.33-.64-1.5-2.29-.27-2.25-.27-6.46-.27-11.33V63.94A21.83,21.83,0,0,0,51.06,64.27ZM47.64,44.44a6.57,6.57,0,0,1,1.82-.17,7.25,7.25,0,0,1,4.89,1.91,9.55,9.55,0,0,1,2.92,7.5c0,5-3.77,8.13-6.48,8.13a25.66,25.66,0,0,1-3.17-.23V44.83C47.62,44.57,47.66,44.45,47.64,44.44Z"/><path class="cls-2" d="M89.3,82.46c-2.9,0-5.18-.06-7.18-.11l-1.85,0c-2.36-.1-4.27-.17-6.49-.17h0c-.59,0-1.74,0-3,.07-.66,0-1.33,0-2,0s-1.22,0-1.75,0c-1.56,0-1.73-.85-1.73-1.21s.14-1.1,1.52-1.1a7.79,7.79,0,0,0,1.78-.2c.54-.1.79-.7,1-2.37.26-2.18.26-6.39.26-11.26V56.77c0-8.11,0-9.58-.1-11.26s-.45-2.15-1.77-2.43a7.52,7.52,0,0,0-1.62-.14c-1.3,0-1.57-.63-1.57-1.15,0-1.15,1.34-1.15,1.84-1.15,1.43,0,3.14,0,4.62.09,1.1,0,2.07.07,2.69.07s1.62,0,2.8-.07c1.54,0,3.28-.09,4.45-.09.44,0,1.79,0,1.79,1.15,0,.76-.55,1.15-1.63,1.15a12.56,12.56,0,0,0-2,.15c-.89.16-1.31.55-1.41,2.41-.11,1.69-.11,3.16-.11,11.27v9.39c0,5.92,0,10.19.89,11,.73.65,1.94,1,6,1,2.84,0,4.65-.08,5.75-1.27A6.15,6.15,0,0,0,91.78,74c.1-.93.53-1.4,1.26-1.4,1.09,0,1.09,1.11,1.09,1.58a43,43,0,0,1-.82,6.31C92.85,82.22,92,82.46,89.3,82.46Z"/><path class="cls-2" d="M164.63,47.89c8,0,13.69-5.67,13.69-13.47a9.81,9.81,0,0,0-2.86-6.79c-.84-.79-3.41-3.19-10.3-3.19-1.26,0-2.68,0-4.07.08s-2.55.08-3.6.08c-.62,0-1.57,0-2.66-.06-1.52-.05-3.33-.1-5-.1-.51,0-1.83,0-1.83,1.14,0,.52.27,1.14,1.56,1.14a9.76,9.76,0,0,1,1.93.15c1.32.28,1.65.73,1.75,2.4s.1,3.13.1,11.18v9.32c0,4.83,0,9-.26,11.18-.22,1.65-.48,2.24-1,2.35a8.24,8.24,0,0,1-1.76.19c-1.36,0-1.51.76-1.51,1.09s.17,1.21,1.72,1.21c1.22,0,2.82-.06,4.21-.1,1,0,1.94-.06,2.46-.06s1.34,0,2.35.05c1.65,0,3.7.11,5.86.11,1.23,0,1.67-.63,1.67-1.21,0-.25-.11-1.09-1.52-1.09a22.41,22.41,0,0,1-2.61-.2c-1-.13-1.31-.64-1.49-2.28-.26-2.24-.26-6.41-.26-11.24V47.56A21.55,21.55,0,0,0,164.63,47.89Zm-3.4-19.68A6.6,6.6,0,0,1,163,28a7.18,7.18,0,0,1,4.85,1.9,9.44,9.44,0,0,1,2.9,7.44c0,5-3.74,8.07-6.42,8.07a25.3,25.3,0,0,1-3.15-.23V28.6C161.22,28.34,161.26,28.22,161.23,28.21Z"/><path class="cls-1" d="M62.1,11.68h0c5.09-2.44,8.42-4.29,7-11.24L69,.41c-1.43,2.86-4.49,4.27-6,5.9-.85.91-1.93,2.69-3,3.82a1.31,1.31,0,0,1-.89.42c-.6,0-1.24,0-1.8,0h-.94a16.68,16.68,0,0,0-1.7.06l-.9.09L54.06,13l.89-.1a8.33,8.33,0,0,1,1,0c.7,0,1.67,0,2.81.1a1.67,1.67,0,0,1,1.15.58c2.64,3,6.75,4.94,7.58,7.86,0,.08.07.05.1-.06C69.1,14.55,65.49,13,62.1,11.68Z"/><path class="cls-1" d="M54.29,12.21h0C58.91,9,61.92,6.64,59.48,0h-.14c-1,3.05-3.76,4.91-5,6.76-.69,1-1.48,3-2.33,4.24a1.37,1.37,0,0,1-.81.56c-.59.13-1.21.23-1.77.32l-.92.15a15.9,15.9,0,0,0-1.68.32l-.87.23.59,2.15.87-.24a8,8,0,0,1,1-.19c.69-.11,1.65-.23,2.79-.34a1.69,1.69,0,0,1,1.22.39c3.08,2.53,7.44,3.83,8.72,6.58,0,.08.08,0,.09-.08C61.66,14,57.84,13,54.29,12.21Z"/><path class="cls-1" d="M46.67,14h0c4.08-3.9,6.68-6.69,3.24-12.87l-.14,0c-.47,3.16-3,5.44-3.88,7.46-.53,1.13-1,3.16-1.64,4.55a1.33,1.33,0,0,1-.72.68c-.55.22-1.15.43-1.69.6l-.89.29c-.65.21-1.17.39-1.6.58l-.83.37.92,2,.82-.37a8.33,8.33,0,0,1,.92-.34c.66-.22,1.59-.48,2.7-.77a1.72,1.72,0,0,1,1.27.19c3.44,2,8,2.62,9.64,5.14.05.07.08,0,.07-.09C54.21,14.52,50.28,14.13,46.67,14Z"/><path class="cls-1" d="M39.4,16.86h0c3.43-4.49,5.56-7.65,1.19-13.22l-.13.05c0,3.19-2.06,5.83-2.67,8-.34,1.19-.49,3.27-.9,4.75a1.31,1.31,0,0,1-.6.78c-.52.31-1.08.6-1.59.86l-.83.42a16.44,16.44,0,0,0-1.49.83l-.76.49,1.23,1.86.74-.5a9,9,0,0,1,.86-.48C35,20.36,35.92,20,37,19.5a1.67,1.67,0,0,1,1.28,0C42,21,46.51,20.83,48.58,23.05c.06.07.08,0,.06-.09C46.94,16.25,43,16.47,39.4,16.86Z"/><path class="cls-1" d="M31.79,101.57l0,0c-5.56-1-9.34-1.47-12.32,5l.1.09c2.84-1.47,6.13-.81,8.32-1.24,1.21-.24,3.14-1,4.64-1.35a1.33,1.33,0,0,1,1,.18c.51.32,1,.69,1.48,1l.76.55a15.23,15.23,0,0,0,1.41.95l.78.46,1.1-1.94-.78-.44c-.2-.11-.48-.3-.82-.54-.56-.42-1.32-1-2.21-1.74a1.62,1.62,0,0,1-.59-1.14c-.38-4-2.55-8-1.51-10.82,0-.08,0-.08-.12,0C27.82,95.13,29.81,98.54,31.79,101.57Z"/><path class="cls-1" d="M38.42,105.73l0,0c-5.65-.13-9.46,0-11.39,6.81l.11.08c2.57-1.9,5.93-1.76,8-2.52,1.16-.43,2.94-1.53,4.37-2.07a1.35,1.35,0,0,1,1,0c.55.24,1.12.52,1.62.78l.83.42c.61.31,1.11.55,1.55.72l.84.33.78-2.09-.84-.31c-.21-.08-.51-.22-.89-.41-.62-.32-1.46-.79-2.46-1.37a1.65,1.65,0,0,1-.75-1c-1-3.86-3.77-7.47-3.19-10.45,0-.08,0-.07-.11,0C33.48,100,36,103.05,38.42,105.73Z"/><path class="cls-1" d="M45.61,108.81l0,0c-5.6.75-9.34,1.48-10.19,8.5l.13.06c2.24-2.27,5.58-2.66,7.52-3.75,1.09-.6,2.67-2,4-2.72a1.29,1.29,0,0,1,1-.12c.58.14,1.18.33,1.72.51l.89.29c.65.21,1.17.37,1.64.47l.88.19.45-2.18-.88-.18c-.23-.05-.54-.14-1-.27-.66-.22-1.57-.55-2.64-1a1.69,1.69,0,0,1-.91-.89c-1.59-3.66-4.89-6.8-4.78-9.83,0-.08,0-.06-.11,0C39.84,103.91,42.79,106.54,45.61,108.81Z"/><path class="cls-1" d="M53.2,110.72h0c-5.41,1.62-9,2.93-8.73,10l.13,0c1.86-2.6,5.1-3.51,6.85-4.88,1-.77,2.32-2.36,3.52-3.32a1.35,1.35,0,0,1,1-.27c.59,0,1.22.14,1.78.23l.92.15c.67.11,1.22.18,1.69.21l.9,0,.1-2.23-.89,0a6.32,6.32,0,0,1-1-.11c-.7-.11-1.64-.3-2.77-.54a1.64,1.64,0,0,1-1-.75c-2.15-3.36-5.9-5.94-6.27-9,0-.09-.06-.06-.1,0C46.74,106.79,50.06,108.92,53.2,110.72Z"/><path class="cls-1" d="M61,111.42h0c-5.09,2.44-8.42,4.29-7.06,11.24l.14,0c1.43-2.86,4.49-4.27,6-5.9.85-.91,1.93-2.69,3-3.82a1.31,1.31,0,0,1,.89-.42c.6,0,1.24,0,1.8,0h.94a16.68,16.68,0,0,0,1.7-.06l.9-.09L69,110.14l-.89.1a8.33,8.33,0,0,1-1,0c-.7,0-1.67,0-2.81-.1a1.67,1.67,0,0,1-1.15-.58c-2.64-3-6.75-4.94-7.58-7.86,0-.08-.07,0-.1.06C54,108.55,57.61,110.13,61,111.42Z"/><path class="cls-1" d="M68.8,110.89h0c-4.64,3.21-7.65,5.56-5.21,12.2h.14c1-3,3.76-4.91,5-6.76.69-1,1.48-3,2.33-4.24a1.33,1.33,0,0,1,.81-.56c.59-.13,1.21-.23,1.77-.32l.92-.15a15.9,15.9,0,0,0,1.68-.32l.87-.23-.59-2.15-.87.24a8,8,0,0,1-1,.19c-.69.11-1.65.23-2.79.34a1.69,1.69,0,0,1-1.22-.39c-3.08-2.53-7.44-3.83-8.72-6.58,0-.08-.08,0-.09.07C61.44,109.15,65.26,110.15,68.8,110.89Z"/><path class="cls-1" d="M76.43,109.15h0c-4.08,3.9-6.68,6.69-3.24,12.87l.14,0c.47-3.16,3-5.43,3.88-7.45.53-1.13,1-3.16,1.64-4.56a1.32,1.32,0,0,1,.72-.67c.55-.22,1.15-.43,1.69-.6l.89-.29c.65-.21,1.17-.39,1.6-.58l.83-.37-.92-2-.82.37a8.33,8.33,0,0,1-.92.34c-.66.22-1.59.48-2.7.77a1.71,1.71,0,0,1-1.27-.19c-3.44-2-8-2.62-9.64-5.14,0-.07-.08,0-.07.09C68.89,108.58,72.82,109,76.43,109.15Z"/><path class="cls-1" d="M83.7,106.23h0c-3.43,4.49-5.56,7.65-1.19,13.22l.13,0c0-3.19,2.06-5.83,2.67-8,.34-1.19.49-3.27.9-4.75a1.31,1.31,0,0,1,.6-.78c.52-.31,1.08-.6,1.59-.86l.83-.42a16.44,16.44,0,0,0,1.49-.83l.76-.49-1.23-1.86-.75.5a8.59,8.59,0,0,1-.85.48c-.62.32-1.5.72-2.55,1.18a1.67,1.67,0,0,1-1.28,0c-3.71-1.46-8.26-1.34-10.33-3.56-.06-.07-.08,0-.06.09C76.16,106.85,80.1,106.63,83.7,106.23Z"/><path class="cls-1" d="M90.41,102.22h0c-2.68,5-4.29,8.43.9,13.24l.12-.06c-.52-3.16,1.12-6.09,1.39-8.3.15-1.23,0-3.31.15-4.83a1.3,1.3,0,0,1,.47-.86c.46-.39,1-.77,1.43-1.1l.75-.55a16.22,16.22,0,0,0,1.35-1l.67-.6-1.5-1.64-.66.6a9,9,0,0,1-.77.61c-.57.41-1.37,1-2.34,1.57a1.68,1.68,0,0,1-1.26.21c-3.89-.86-8.37,0-10.76-1.9-.07-.06-.08,0,0,.1C83.06,104,86.92,103.17,90.41,102.22Z"/><path class="cls-1" d="M96.42,97.2h0c-1.87,5.33-2.92,9,3,12.94l.11-.08c-1-3,.16-6.19.08-8.41,0-1.24-.54-3.27-.61-4.8a1.33,1.33,0,0,1,.33-.93c.4-.45.84-.9,1.24-1.3l.66-.66a16.85,16.85,0,0,0,1.16-1.25l.57-.7-1.74-1.39-.55.7c-.15.18-.37.43-.67.73-.5.49-1.2,1.15-2.06,1.91a1.62,1.62,0,0,1-1.21.4c-4-.24-8.28,1.28-10.93-.19-.08,0-.08,0,0,.1C89.44,100.12,93.12,98.69,96.42,97.2Z"/><path class="cls-1" d="M101.57,91.31l0,0c-1,5.56-1.47,9.34,5,12.32l.09-.1c-1.47-2.84-.81-6.13-1.24-8.32-.24-1.21-1-3.14-1.35-4.64a1.33,1.33,0,0,1,.18-1c.32-.51.69-1,1-1.48l.55-.76a15.23,15.23,0,0,0,.95-1.41l.46-.78-1.94-1.1-.44.78c-.11.2-.3.48-.54.82-.42.56-1,1.32-1.74,2.21a1.66,1.66,0,0,1-1.14.59c-4,.38-8,2.55-10.82,1.51-.08,0-.08,0,0,.11C95.13,95.28,98.54,93.29,101.57,91.31Z"/><path class="cls-1" d="M105.73,84.68l0,0c-.13,5.65,0,9.46,6.81,11.39l.08-.11c-1.9-2.57-1.76-5.93-2.52-8-.43-1.16-1.53-2.94-2.07-4.37a1.35,1.35,0,0,1,0-1c.24-.55.52-1.12.78-1.62l.42-.83c.31-.61.55-1.11.72-1.55l.33-.84-2.09-.78-.31.84c-.08.21-.22.51-.41.89-.32.62-.79,1.46-1.37,2.46a1.65,1.65,0,0,1-1,.75c-3.86,1-7.47,3.77-10.45,3.19-.08,0-.07,0,0,.11C100,89.62,103.05,87.11,105.73,84.68Z"/><path class="cls-1" d="M108.81,77.49l0,0c.75,5.6,1.48,9.34,8.5,10.19l.06-.13c-2.27-2.24-2.66-5.58-3.75-7.52-.6-1.09-2-2.67-2.72-4a1.29,1.29,0,0,1-.12-1c.14-.58.33-1.18.51-1.72l.29-.89c.21-.65.37-1.17.47-1.64l.19-.88-2.18-.45-.18.88c-.05.23-.14.54-.27,1-.22.66-.55,1.57-1,2.64a1.69,1.69,0,0,1-.89.91c-3.66,1.59-6.8,4.89-9.83,4.78-.08,0-.06.05,0,.11C103.91,83.26,106.54,80.31,108.81,77.49Z"/><path class="cls-1" d="M110.72,69.9v0c1.62,5.41,2.93,9,10,8.73a.65.65,0,0,1,0-.13c-2.6-1.86-3.51-5.1-4.88-6.85-.77-1-2.36-2.32-3.32-3.52a1.35,1.35,0,0,1-.27-.95c0-.59.14-1.22.23-1.78l.15-.92c.11-.67.18-1.22.21-1.69l0-.9-2.23-.11,0,.9a7.92,7.92,0,0,1-.11,1c-.11.7-.3,1.64-.54,2.77a1.66,1.66,0,0,1-.75,1c-3.36,2.15-5.94,5.9-9,6.27-.09,0-.06.06,0,.1C106.79,76.36,108.92,73,110.72,69.9Z"/><path class="cls-1" d="M111.42,62.1v0c2.44,5.09,4.29,8.42,11.24,7a.59.59,0,0,1,0-.13c-2.86-1.43-4.27-4.49-5.9-6-.91-.85-2.69-1.93-3.82-3a1.31,1.31,0,0,1-.42-.89c0-.6,0-1.24,0-1.8v-.94a16.68,16.68,0,0,0-.06-1.7l-.09-.9-2.21.25.1.89a8.33,8.33,0,0,1,0,1c0,.7,0,1.67-.1,2.81a1.67,1.67,0,0,1-.58,1.15c-3,2.64-4.94,6.75-7.86,7.58-.08,0,0,.07.06.1C108.55,69.1,110.13,65.49,111.42,62.1Z"/><path class="cls-1" d="M110.89,54.29v0c3.21,4.64,5.56,7.65,12.2,5.21v-.14c-3-1-4.91-3.76-6.76-5-1-.69-3-1.48-4.24-2.33a1.37,1.37,0,0,1-.56-.81c-.13-.59-.23-1.21-.32-1.77l-.15-.92a15.9,15.9,0,0,0-.32-1.68l-.23-.87-2.15.59.24.87a8,8,0,0,1,.19,1c.11.69.23,1.65.34,2.79a1.69,1.69,0,0,1-.39,1.22c-2.53,3.08-3.83,7.44-6.58,8.72-.08,0,0,.08.08.09C109.15,61.66,110.15,57.84,110.89,54.29Z"/><path class="cls-1" d="M109.15,46.67v0c3.9,4.08,6.69,6.68,12.87,3.24,0-.12,0,0,0-.14-3.16-.48-5.43-3-7.45-3.88-1.13-.53-3.16-1-4.56-1.64a1.32,1.32,0,0,1-.67-.72c-.22-.55-.43-1.15-.6-1.69l-.29-.89c-.21-.65-.39-1.17-.58-1.6l-.37-.83-2,.92.37.82a8.33,8.33,0,0,1,.34.92c.22.66.48,1.59.77,2.7a1.72,1.72,0,0,1-.19,1.27c-2,3.43-2.62,8-5.14,9.64-.07.05,0,.08.09.07C108.58,54.21,109,50.28,109.15,46.67Z"/><path class="cls-1" d="M106.23,39.4v0c4.49,3.43,7.65,5.56,13.22,1.19l0-.13c-3.19,0-5.83-2.06-8-2.67-1.19-.34-3.27-.49-4.75-.9a1.31,1.31,0,0,1-.78-.6c-.31-.52-.6-1.08-.86-1.59l-.42-.83a16.44,16.44,0,0,0-.83-1.49l-.49-.76-1.86,1.23.5.74a9,9,0,0,1,.48.86c.32.62.72,1.5,1.18,2.55a1.67,1.67,0,0,1,0,1.28c-1.46,3.71-1.34,8.26-3.56,10.33-.07.06,0,.08.09.06C106.85,46.94,106.63,43,106.23,39.4Z"/><path class="cls-1" d="M102.22,32.68v0c5,2.68,8.43,4.29,13.24-.9l-.06-.12c-3.16.52-6.09-1.12-8.3-1.39-1.23-.15-3.31,0-4.83-.15a1.3,1.3,0,0,1-.86-.47c-.39-.46-.77-1-1.1-1.43l-.55-.75a14.7,14.7,0,0,0-1-1.35l-.6-.67-1.64,1.5.6.66a9,9,0,0,1,.61.77c.41.57,1,1.37,1.57,2.34A1.68,1.68,0,0,1,99.45,32c-.86,3.89,0,8.37-1.9,10.76-.06.07,0,.08.1,0C104,40,103.17,36.18,102.22,32.68Z"/><path class="cls-1" d="M97.2,26.68v0c5.33,1.87,9,2.92,12.94-2.95l-.08-.11c-3,1-6.19-.16-8.41-.08-1.24,0-3.27.54-4.8.61a1.33,1.33,0,0,1-.93-.33c-.45-.4-.9-.84-1.3-1.24L94,21.89a16.85,16.85,0,0,0-1.25-1.16l-.7-.57L90.61,21.9l.7.55c.18.15.43.37.73.67.49.49,1.15,1.2,1.91,2.06a1.66,1.66,0,0,1,.4,1.21c-.24,4,1.28,8.28-.19,10.93,0,.07,0,.08.1,0C100.12,33.66,98.69,30,97.2,26.68Z"/><path class="cls-1" d="M91.31,21.53l0,0c5.56,1,9.34,1.47,12.32-5l-.1-.09c-2.84,1.47-6.13.81-8.32,1.24-1.21.24-3.14,1-4.64,1.35a1.33,1.33,0,0,1-1-.18c-.51-.32-1-.69-1.48-1l-.76-.55a15.23,15.23,0,0,0-1.41-.95l-.78-.46-1.1,1.94.78.44c.2.11.48.3.82.54.56.42,1.32,1,2.21,1.74a1.66,1.66,0,0,1,.59,1.13c.38,4,2.55,8,1.51,10.83,0,.08,0,.08.11,0C95.28,28,93.29,24.56,91.31,21.53Z"/><path class="cls-1" d="M84.68,17.37l0,0c5.65.13,9.46,0,11.39-6.81l-.11-.08c-2.57,1.9-5.93,1.76-8,2.52-1.16.43-2.94,1.53-4.37,2.07a1.35,1.35,0,0,1-1,0c-.55-.24-1.12-.52-1.62-.78l-.83-.42c-.61-.31-1.11-.55-1.55-.72l-.84-.33-.78,2.09.84.31c.21.08.51.22.89.41.62.32,1.46.79,2.46,1.37a1.65,1.65,0,0,1,.75,1c1,3.86,3.77,7.47,3.19,10.45,0,.08,0,.07.11,0C89.62,23.1,87.11,20.05,84.68,17.37Z"/><path class="cls-1" d="M77.49,14.29l0,0c5.6-.75,9.34-1.48,10.19-8.5l-.13-.06C85.28,8,81.94,8.37,80,9.46c-1.09.6-2.67,2-4,2.72a1.29,1.29,0,0,1-1,.12c-.58-.14-1.18-.33-1.72-.51l-.89-.29c-.65-.21-1.17-.37-1.64-.47l-.88-.19L69.44,13l.88.18c.23.05.54.14,1,.27.66.21,1.57.55,2.64,1a1.69,1.69,0,0,1,.91.89c1.59,3.66,4.89,6.8,4.78,9.83,0,.08.05.06.11,0C83.26,19.19,80.31,16.56,77.49,14.29Z"/><path class="cls-1" d="M69.9,12.38h0c5.41-1.62,9-2.93,8.73-10l-.13,0c-1.86,2.6-5.1,3.51-6.85,4.88-1,.77-2.32,2.36-3.52,3.32a1.35,1.35,0,0,1-.95.27c-.59-.05-1.22-.14-1.78-.23l-.92-.15c-.67-.11-1.22-.18-1.69-.21l-.9-.05-.11,2.23.9,0a8.34,8.34,0,0,1,1,.12c.7.11,1.64.3,2.77.54a1.66,1.66,0,0,1,1,.75c2.15,3.36,5.9,5.94,6.27,9,0,.09.06.06.1,0C76.36,16.31,73,14.18,69.9,12.38Z"/><path class="cls-1" d="M14,76.43v0c-3.9-4.08-6.69-6.68-12.87-3.24a.68.68,0,0,1,0,.14c3.16.47,5.44,3,7.46,3.88,1.13.53,3.16,1,4.55,1.64a1.33,1.33,0,0,1,.68.72c.22.55.43,1.15.6,1.69l.29.89c.21.65.39,1.17.58,1.6l.37.83,2-.92-.37-.82a8.33,8.33,0,0,1-.34-.92c-.22-.66-.48-1.59-.77-2.7A1.71,1.71,0,0,1,16.36,78c2-3.44,2.62-8,5.14-9.64.07,0,0-.08-.09-.07C14.52,68.89,14.13,72.82,14,76.43Z"/><path class="cls-1" d="M16.86,83.7v0c-4.49-3.43-7.65-5.56-13.22-1.19l.05.13c3.19,0,5.83,2.06,8,2.67,1.19.34,3.27.49,4.75.9a1.31,1.31,0,0,1,.78.6c.31.52.6,1.08.86,1.59l.42.83a16.44,16.44,0,0,0,.83,1.49l.49.76,1.85-1.23-.49-.75a8.59,8.59,0,0,1-.48-.85c-.32-.63-.72-1.5-1.18-2.55a1.67,1.67,0,0,1,0-1.28c1.46-3.71,1.34-8.26,3.56-10.33.07-.06,0-.08-.09-.06C16.25,76.16,16.47,80.1,16.86,83.7Z"/><path class="cls-1" d="M20.88,90.41v0c-5-2.68-8.43-4.29-13.24.9l.06.12c3.15-.52,6.09,1.12,8.3,1.39,1.23.15,3.31,0,4.83.15a1.3,1.3,0,0,1,.86.47c.39.46.77,1,1.1,1.43l.55.75a16.22,16.22,0,0,0,1,1.35l.6.67,1.64-1.5-.6-.66a9,9,0,0,1-.61-.77c-.41-.57-.95-1.37-1.57-2.34a1.68,1.68,0,0,1-.21-1.26c.86-3.89,0-8.37,1.9-10.76.06-.07,0-.08-.1,0C19.09,83.06,19.93,86.92,20.88,90.41Z"/><path class="cls-1" d="M25.9,96.42v0c-5.33-1.87-9-2.92-12.94,3l.08.11c3-1,6.19.16,8.41.08,1.24,0,3.27-.54,4.8-.61a1.33,1.33,0,0,1,.93.33c.45.4.9.84,1.3,1.24l.66.66a16.85,16.85,0,0,0,1.25,1.16l.7.57,1.39-1.74-.7-.55c-.18-.15-.43-.37-.73-.67-.49-.5-1.15-1.2-1.91-2.06a1.62,1.62,0,0,1-.4-1.21c.24-4-1.28-8.28.19-10.93,0-.08,0-.08-.11,0C23,89.44,24.41,93.12,25.9,96.42Z"/><path class="cls-1" d="M14.29,45.61l0,0c-.75-5.6-1.48-9.34-8.5-10.19l-.06.13C8,37.82,8.37,41.16,9.46,43.1c.6,1.08,2,2.67,2.72,4a1.29,1.29,0,0,1,.12,1c-.14.58-.33,1.18-.51,1.72l-.29.89c-.21.65-.37,1.17-.47,1.64l-.19.88,2.18.45.18-.88c.05-.23.14-.54.27-1,.21-.66.55-1.57,1-2.64a1.69,1.69,0,0,1,.89-.91c3.66-1.59,6.8-4.89,9.83-4.78.08,0,.06,0,0-.11C19.19,39.84,16.56,42.79,14.29,45.61Z"/><path class="cls-1" d="M12.38,53.2v0c-1.62-5.41-2.93-9-10-8.73a.65.65,0,0,1,0,.13c2.6,1.86,3.51,5.1,4.88,6.85.77,1,2.36,2.32,3.32,3.52a1.35,1.35,0,0,1,.27,1c-.05.59-.14,1.22-.23,1.78l-.15.92c-.11.67-.18,1.22-.21,1.69l-.05.9,2.23.1,0-.89a6.32,6.32,0,0,1,.11-1c.11-.7.3-1.64.54-2.77a1.66,1.66,0,0,1,.75-1c3.36-2.15,5.94-5.9,9-6.27.09,0,.06-.06,0-.1C16.31,46.74,14.18,50.06,12.38,53.2Z"/><path class="cls-1" d="M11.68,61v0C9.23,55.93,7.38,52.6.43,54l0,.13c2.86,1.43,4.27,4.49,5.9,6,.9.85,2.69,1.93,3.82,3a1.31,1.31,0,0,1,.42.89c0,.6,0,1.24,0,1.8v.94a16.68,16.68,0,0,0,.06,1.7l.09.9L13,69l-.1-.89a8.33,8.33,0,0,1,0-1c0-.7,0-1.67.1-2.81a1.67,1.67,0,0,1,.58-1.15c3-2.64,4.94-6.75,7.86-7.58.08,0,.05-.07-.06-.1C14.55,54,13,57.61,11.68,61Z"/><path class="cls-1" d="M12.21,68.8v0C9,64.19,6.64,61.18,0,63.62v.14c3.05,1,4.91,3.76,6.76,5,1,.69,3,1.48,4.24,2.33a1.37,1.37,0,0,1,.56.81c.13.59.23,1.21.32,1.77l.15.92a15.9,15.9,0,0,0,.32,1.68l.23.87,2.15-.59-.24-.87a8,8,0,0,1-.19-1c-.11-.69-.23-1.65-.34-2.79a1.69,1.69,0,0,1,.39-1.22c2.53-3.08,3.83-7.44,6.58-8.72.08,0,0-.08-.08-.09C14,61.44,13,65.26,12.21,68.8Z"/><path class="cls-1" d="M32.68,20.88h0c2.68-5,4.29-8.43-.9-13.24l-.12.06c.52,3.15-1.12,6.09-1.39,8.3-.15,1.23,0,3.31-.15,4.83a1.3,1.3,0,0,1-.47.86c-.46.39-1,.77-1.43,1.1l-.75.55a14.7,14.7,0,0,0-1.35,1l-.67.6,1.5,1.64.66-.6a9,9,0,0,1,.77-.61c.57-.41,1.37-.95,2.34-1.57A1.68,1.68,0,0,1,32,23.65c3.89.86,8.37,0,10.76,1.9.07.06.08,0,0-.1C40,19.09,36.18,19.93,32.68,20.88Z"/><path class="cls-1" d="M26.68,25.9h0c1.87-5.33,2.92-9-2.95-12.94l-.11.08c1,3-.16,6.19-.08,8.41,0,1.24.54,3.27.61,4.8a1.33,1.33,0,0,1-.33.93c-.4.45-.84.9-1.24,1.3l-.66.66a16.85,16.85,0,0,0-1.16,1.25l-.57.7,1.74,1.39.55-.7c.15-.18.37-.43.67-.73.49-.49,1.2-1.15,2.06-1.91a1.62,1.62,0,0,1,1.21-.4c4,.24,8.28-1.28,10.93.19.07,0,.08,0,0-.1C33.66,23,30,24.41,26.68,25.9Z"/><path class="cls-1" d="M21.53,31.79l0,0c1-5.56,1.48-9.34-4.94-12.32l-.09.1c1.47,2.84.81,6.13,1.24,8.32.24,1.21,1,3.14,1.35,4.64a1.33,1.33,0,0,1-.18,1c-.32.51-.69,1-1,1.48l-.55.76a15.23,15.23,0,0,0-.95,1.41L15.9,38l1.94,1.1.44-.78c.11-.2.3-.48.54-.82.42-.56,1-1.32,1.74-2.21a1.62,1.62,0,0,1,1.14-.59c4-.38,8-2.55,10.82-1.51.08,0,.08,0,0-.12C28,27.82,24.56,29.81,21.53,31.79Z"/><path class="cls-1" d="M17.37,38.42l0,0c.14-5.65,0-9.46-6.8-11.39l-.08.11c1.9,2.57,1.76,5.93,2.52,8,.43,1.16,1.53,2.94,2.07,4.37a1.35,1.35,0,0,1,0,1c-.24.55-.52,1.12-.78,1.62l-.42.83c-.31.61-.55,1.11-.72,1.55l-.33.84,2.09.78.31-.84c.08-.21.22-.51.41-.89C15.9,43.81,16.37,43,17,42a1.65,1.65,0,0,1,1-.75c3.86-1,7.47-3.77,10.45-3.19.08,0,.07,0,0-.11C23.1,33.48,20.05,36,17.37,38.42Z"/></g></g></svg>